<svg width="16" height="16" viewBox="0 0 16 16" fill="none" xmlns="http://www.w3.org/2000/svg">
<path d="M6.66665 12C7.84996 11.9997 8.99918 11.6036 9.93131 10.8746L12.862 13.8053L13.8046 12.8626L10.874 9.93198C11.6033 8.99976 11.9997 7.85027 12 6.66665C12 3.72598 9.60731 1.33331 6.66665 1.33331C3.72598 1.33331 1.33331 3.72598 1.33331 6.66665C1.33331 9.60731 3.72598 12 6.66665 12ZM6.66665 2.66665C8.87265 2.66665 10.6666 4.46065 10.6666 6.66665C10.6666 8.87265 8.87265 10.6666 6.66665 10.6666C4.46065 10.6666 2.66665 8.87265 2.66665 6.66665C2.66665 4.46065 4.46065 2.66665 6.66665 2.66665Z" fill="black"/>
</svg>
